<svg width="66" height="41" viewBox="0 0 66 41" fill="none" xmlns="http://www.w3.org/2000/svg">
<line y1="-3" x2="36.7777" y2="-2.4599" transform="matrix(0.433805 -0.901007 0.433805 0.901007 30.3771 39.137)" stroke="#2D3FBB" stroke-width="6"/>
<line y1="-3" x2="36.7777" y2="-2.4599" transform="matrix(0.433805 -0.901007 0.433805 0.901007 36.6965 40.5134)" stroke="#FFFF00" stroke-width="6"/>
<line y1="-3" x2="36.7777" y2="-2.4599" transform="matrix(0.433805 -0.901007 0.433805 0.901007 8.88098 40.5134)" stroke="#FFFF00" stroke-width="6"/>
<line y1="-3" x2="36.7777" y2="-2.76696" transform="matrix(0.433805 0.901007 -0.433805 0.901007 19.8988 6.6882)" stroke="#FFFF00" stroke-width="6"/>
<line y1="-3" x2="36.7777" y2="-2.76696" transform="matrix(0.433805 0.901007 -0.433805 0.901007 13.6171 7.37642)" stroke="#2D3FBB" stroke-width="6"/>
<line y1="-3" x2="36.7777" y2="-2.76696" transform="matrix(0.433805 0.901007 -0.433805 0.901007 47.0457 7.37642)" stroke="#FFFF00" stroke-width="6"/>
<line y1="-3" x2="36.7777" y2="-2.4599" transform="matrix(0.433805 -0.901007 0.433805 0.901007 2.84869 39.6543)" stroke="#2D3FBB" stroke-width="6"/>
</svg>
